.
..............................Site Info...........................

 -   http://www.scenetime.com  *_*   

SceneTime is going to Close sign up on march/1, hurry up! get in before the doors are closed.

     We care to share . Join us on  http://www.scenetime.com 

    Be the first to get new release at  http://www.scenetime.com

        Seed back for speed


...................................NFO:.................................................--------------------------------------------------------------------------------
--------------------------------------------------------------------------------
--------------------------------------------------------------------------------
--------------------------------------------------------------------------------
--------------------------------------------------------------------------------
--------------------------------------------------------------------------------
---------------+++++++++++++--------------------------+++++++++++---------------
--------------+++++++++++++++--------+--------------++++++++++++++--------------
-------------++----------++++-------+++------------+++---------+++--------------
------------++------------++---------+-----------++++---------------------------
------------++----------------------------------++++----------------------------
------------++-----------------------+---------++++-----------------------------
------------++++--------------------+++-------++++------------------------------
-------------+++++------------------+++-------+++-------------------------------
---------------++++++++-------------+++-------+++-------------------------------
---------------------+++++----------+++-------+++-------------------------------
------------------------+++---------+++-------+++-------------------------------
--------------------------++--------+++-------+++-------------------------------
---------------------------++-------+++-------+++-------------------------------
----------------------------++------+++-------+++-------------------------------
----------------------------++------+++-------++++------------------------------
----------------------------++------+++--------++++-----------------------------
----------------------------++------+++---------++++----------------------------
----------------------------++------+++----------++++---------------------------
---------------++----------+++------+++------------+++---------+++--------------
--------------++++--------+++-------+++-------------++++++++++++++--------------
---------------++++++++++++---------+++---------------+++++++++++---------------
----------------+++++++++-------------------------------------------------------
--------------------------------------------------------------------------------
--------------------------------------------------------------------------------
--------------------------------------------------------------------------------
--------------------------------------------------------------------------------
--------------------------------------------------------------------------------
--------------------------------------------------------------------------------
--------------------------------------------------------------------------------
--------------------------------------------------------------------------------
--------------------------------------------------------------------------------
--------------------------------------------------------------------------------
---------+-+--------+-+--------+-+--------+-+--------+-+--------+-+--------+-+---------
--------------------------------------------------------------------------------
---+++-+------+++-+------+++-+------+++++++---+++-+------+++-+---+++-+--++++---+++++++
---++++-------  -------++++------++++++-+---++++-------  ----   ----   ---++++++-+
--------------  ++++----------------------------------  ----   ----   ----------
--------------      ----------------------------------  ----   ----   ----------
---+++++++----      ---+++++++++++++-+------+++++++----  ----   ----   ++++++-+---
----      ----      ---++++++-++++++++------++++++-+----  ----   ----   +++++++---
----      ----      ----------------------------------  ----   ----   ----------
----      ----      ----------------------------------  ----   ----   ----------
++++      ++++      ++++++++++++++++++++++++++++++++++  ++++   ++++   ++++++++++

Underworld.Awakening.2012.R5.FULL.LiNE.XviD-SiC

Poster:
[img]http://i.imgur.com/Ak3I8.jpg[/img]

IMDB Link:
http://www.imdb.com/title/tt1496025/

Description:
When human forces discover the existence of the Vampire and Lycan clans, a war to eradicate both species commences. The vampire warrioress Selene leads the battle against humankind. 


General
Complete name                    : Underworld Awakening 2012 TS READNFO XviD - SiC.avi
Format                           : AVI
Format/Info                      : Audio Video Interleave
File size                        : 1.35 MiB
Duration                         : 1h 15mn
Overall bit rate                 : 2 269 Kbps
Writing library                  : VirtualDub build 32842/release

Video
ID                                       : 0
Format                                   : MPEG-4 Visual
Format profile                           : Advanced Simple@L5
Format settings, BVOP                    : 2
Format settings, QPel                    : No
Format settings, GMC                     : No warppoints
Format settings, Matrix                  : Default (H.263)
Codec ID                                 : XVID
Codec ID/Hint                            : XviD
Duration                                 : 1h 25mn
Bit rate                                 : 2 131 Kbps
Width                                    : 720 pixels
Height                                   : 304 pixels
Display aspect ratio                     : 2.35:1
Frame rate                               : 25.000 fps
Color space                              : YUV
Chroma subsampling                       : 4:2:0
Bit depth                                : 8 bits
Scan type                                : Progressive
Compression mode                         : Lossy
Bits/(Pixel*Frame)                       : 0.389
Stream size                              : 1.27 GiB (94%)
Writing library                          : XviD 64


Audio
ID                                       : 1
Format                                   : MPEG Audio
Format version                           : Version 1
Format profile                           : Layer 3
Mode                                     : Joint stereo
Mode extension                           : MS Stereo
Codec ID                                 : 55
Codec ID/Hint                            : MP3
Duration                                 : 1h 25mn
Bit rate mode                            : Constant
Bit rate                                 : 128 Kbps
Channel(s)                               : 2 channels
Sampling rate                            : 44.1 KHz
Compression mode                         : Lossy
Stream size                              : 78.0 MiB (6%)
Alignment                                : Split accross interleaves
Interleave, duration                     : 40 ms (1.00 video frame)
Writing library                          : LAME3.98r
Encoding settings                        : -m j -V 4 -q 2 -lowpass 17 -b 128


Screenshots:[IMG]http://i.imgur.com/fIl3d.png[/IMG]


Note: 
 
Enjoy this release having FULL LiNE

Source: Big thanks to LittlebirD for the audio and video Lum1x for the R5 VOBS
Enjoy!

Respects to T00NG0D, ELEKTRI4KA, PA, YeFsTe, MrRep and everyone in the struggle...RiP MU & BTJ